<?xml version="1.0" encoding="utf-8"?>
<!-- Generator: Adobe Illustrator 16.0.0, SVG Export Plug-In . SVG Version: 6.00 Build 0)  -->
<!DOCTYPE svg PUBLIC "-//W3C//DTD SVG 1.1//EN" "http://www.w3.org/Graphics/SVG/1.1/DTD/svg11.dtd">
<svg version="1.1" id="圖層_1" xmlns="http://www.w3.org/2000/svg" xmlns:xlink="http://www.w3.org/1999/xlink" x="0px" y="0px"
	 width="20px" height="20px" viewBox="0 0 20 20" enable-background="new 0 0 20 20" xml:space="preserve">
<g>
	<path fill="#B9BCBF" d="M6.59,10.182H5.314V7.157c0-0.252-0.205-0.461-0.457-0.461C4.606,6.696,4.4,6.905,4.4,7.157v3.485
		c0,0.251,0.206,0.459,0.457,0.459H6.59c0.251,0,0.457-0.208,0.457-0.459C7.046,10.389,6.843,10.182,6.59,10.182z"/>
	<path fill="#B9BCBF" d="M12.09,6.696c-0.252,0-0.456,0.209-0.456,0.461v2.159L9.846,6.883C9.759,6.774,9.628,6.697,9.487,6.697
		c-0.042,0-0.098,0.007-0.142,0.024C9.159,6.784,9.034,6.958,9.034,7.157v3.484c0,0.251,0.203,0.46,0.455,0.46
		c0.255,0,0.458-0.209,0.458-0.46V8.494l1.773,2.423c0.088,0.117,0.217,0.183,0.37,0.183c0.049,0,0.099-0.007,0.145-0.021
		c0.188-0.063,0.313-0.238,0.313-0.437V7.157C12.548,6.905,12.342,6.696,12.09,6.696z"/>
	<path fill="#B9BCBF" d="M7.924,6.696c-0.252,0-0.457,0.209-0.457,0.461v3.485c0,0.251,0.205,0.459,0.455,0.459
		c0.254,0,0.459-0.208,0.459-0.459V7.157C8.38,6.905,8.175,6.696,7.924,6.696z"/>
	<path fill="#B9BCBF" d="M15.348,7.617c0.253,0,0.457-0.206,0.457-0.46c0-0.252-0.204-0.461-0.455-0.461h-1.732
		c-0.253,0-0.458,0.209-0.458,0.461v3.485c0,0.251,0.205,0.459,0.455,0.459h1.733c0.253,0,0.457-0.208,0.457-0.459
		c0-0.253-0.204-0.459-0.457-0.459h-1.274V9.359h1.274c0.253,0,0.457-0.208,0.457-0.46c0-0.252-0.204-0.46-0.457-0.46h-1.274V7.617
		H15.348z"/>
	<path fill="#B9BCBF" d="M19.592,2.047c-0.359-0.706-0.934-1.279-1.639-1.639C17.15,0,16.1,0,14,0H6C3.9,0,2.85,0,2.047,0.409
		C1.342,0.768,0.768,1.342,0.409,2.047C0,2.85,0,3.9,0,6v8c0,2.1,0,3.15,0.409,3.953c0.359,0.705,0.933,1.278,1.639,1.639
		c0.509,0.259,1.122,0.354,2.036,0.388V20H6h2.479h3.104H14h2.25v-0.038c0.731-0.046,1.259-0.145,1.703-0.37
		c0.705-0.36,1.279-0.934,1.639-1.639C20,17.15,20,16.1,20,14V6C20,3.9,20,2.85,19.592,2.047z M16.862,13.129
		c-1.829,2.116-5.913,4.702-6.851,5.096c-0.936,0.394-0.794-0.253-0.761-0.472l0.118-0.744c0.03-0.23,0.061-0.569-0.027-0.79
		c-0.099-0.242-0.484-0.371-0.769-0.43c-4.186-0.562-7.286-3.507-7.286-7.021c0-3.925,3.91-7.119,8.713-7.119
		c4.804,0,8.713,3.194,8.713,7.119C18.713,10.335,18.115,11.748,16.862,13.129z"/>
</g>
</svg>
